{"accessors":[{"bufferView":0,"byteOffset":0,"componentType":5126,"count":226,"max":[0.02,0.4,0.02],"min":[-0.02,0.0,-0.02],"type":"VEC3"},{"bufferView":0,"byteOffset":2712,"componentType":5126,"count":221,"max":[0.02,0.0,0.02],"min":[-0.02,0.0,-0.02],"type":"VEC3"},{"bufferView":0,"byteOffset":5364,"componentType":5126,"count":221,"max":[0.02,0.4,0.02],"min":[-0.02,0.4,-0.02],"type":"VEC3"},{"bufferView":0,"byteOffset":8016,"componentType":5126,"count":220,"max":[0.01925,0.4,0.019248001151031983],"min":[-0.019242005019234135,0.0,-0.019248001151031983],"type":"VEC3"},{"bufferView":0,"byteOffset":10656,"componentType":5126,"count":2508,"max":[0.02,0.019997844915025213,0.0],"min":[-0.020000000000000007,-0.019997844915025216,-0.03856000000000006],"type":"VEC3"},{"bufferView":0,"byteOffset":40752,"componentType":5126,"count":11288,"max":[0.011772844463172281,0.011772844463172276,-0.038560000000000004],"min":[-0.011772844463172281,-0.011772844463172276,-0.04999999999999983],"type":"VEC3"},{"bufferView":0,"byteOffset":176208,"componentType":5126,"count":420,"max":[0.02,0.019997844915025213,0.0],"min":[-0.020000000000000007,-0.019997844915025216,0.0],"type":"VEC3"},{"bufferView":0,"byteOffset":181248,"componentType":5126,"count":522,"max":[0.018466238137574538,0.018464090775277938,0.0],"min":[-0.018466238137574535,-0.018464090775277945,-0.0382470050964514],"type":"VEC3"},{"bufferView":0,"byteOffset":187512,"componentType":5126,"count":1265,"max":[0.010305863144154551,0.010303718784548355,-0.038247005096442424],"min":[-0.010305863144155112,-0.010303718784548357,-0.04846148512331382],"type":"VEC3"},{"bufferView":0,"byteOffset":202692,"componentType":5126,"count":87,"max":[0.019,0.005,0.01886146860786303],"min":[-0.019,0.005,-0.018861468607863023],"type":"VEC3"},{"bufferView":0,"byteOffset":203736,"componentType":5126,"count":8,"max":[0.0010000000000002101,0.10200000000000001,0.018000000000000002],"min":[0.000999999999999998,0.002,-0.018000000000000002],"type":"VEC3"},{"bufferView":0,"byteOffset":203832,"componentType":5126,"count":16,"max":[0.001,0.10200000000000001,-0.018000000000000002],"min":[0.0005,0.005,-0.0185],"type":"VEC3"},{"bufferView":0,"byteOffset":204024,"componentType":5126,"count":30,"max":[0.017,0.005,0.01697056274847714],"min":[0.000999999999999998,0.002,-0.01697056274847714],"type":"VEC3"},{"bufferView":0,"byteOffset":204384,"componentType":5126,"count":4,"max":[0.0005,0.10200000000000001,-0.0185],"min":[-0.0005,0.005,-0.0185],"type":"VEC3"},{"bufferView":0,"byteOffset":204432,"componentType":5126,"count":16,"max":[-0.0005,0.10200000000000001,-0.018000000000000002],"min":[-0.001,0.005,-0.0185],"type":"VEC3"},{"bufferView":0,"byteOffset":204624,"componentType":5126,"count":8,"max":[-0.000999999999999943,0.10200000000000001,0.018000000000000002],"min":[-0.001000000000000004,0.002,-0.018000000000000002],"type":"VEC3"},{"bufferView":0,"byteOffset":204720,"componentType":5126,"count":16,"max":[0.001,0.10200000000000001,0.0185],"min":[0.0005,0.005,0.018000000000000002],"type":"VEC3"},{"bufferView":0,"byteOffset":204912,"componentType":5126,"count":28,"max":[-0.000999999999999943,0.005,0.01697056274847715],"min":[-0.016885155271299787,0.002,-0.016970562748477146],"type":"VEC3"},{"bufferView":0,"byteOffset":205248,"componentType":5126,"count":4,"max":[0.0005,0.10200000000000001,0.0185],"min":[-0.0005,0.005,0.0185],"type":"VEC3"},{"bufferView":0,"byteOffset":205296,"componentType":5126,"count":16,"max":[-0.0005,0.10200000000000001,0.0185],"min":[-0.001,0.005,0.018000000000000002],"type":"VEC3"},{"bufferView":0,"byteOffset":205488,"componentType":5126,"count":54,"max":[0.019,0.005,0.01886146860786303],"min":[-0.019,0.0,-0.018861468607863023],"type":"VEC3"},{"bufferView":0,"byteOffset":206136,"componentType":5126,"count":32,"max":[0.001,0.10200000000000001,0.0185],"min":[-0.001,0.10200000000000001,-0.0185],"type":"VEC3"},{"bufferView":0,"byteOffset":206520,"componentType":5126,"count":15,"max":[0.017,0.002,0.016970562748477115],"min":[0.0010000000000002101,0.002,-0.016970562748477115],"type":"VEC3"},{"bufferView":0,"byteOffset":206700,"componentType":5126,"count":14,"max":[-0.000999999999999943,0.002,0.01697056274847715],"min":[-0.016885155271299787,0.002,-0.016970562748477146],"type":"VEC3"},{"bufferView":0,"byteOffset":206868,"componentType":5126,"count":26,"max":[0.019,0.0,0.01886146860786303],"min":[-0.019,0.0,-0.018861468607863023],"type":"VEC3"},{"bufferView":0,"byteOffset":207180,"componentType":5126,"count":54,"max":[0.01896373278519241,0.10299999641703472,0.018966900556069193],"min":[-0.01896373475022968,0.09799999595354163,-0.018966901824922507],"type":"VEC3"},{"bufferView":0,"byteOffset":207828,"componentType":5126,"count":26,"max":[0.018963732733751643,0.10299999641703472,0.018966900522853134],"min":[-0.01896373475022968,0.10299999595354166,-0.018966901824922507],"type":"VEC3"},{"bufferView":0,"byteOffset":208140,"componentType":5126,"count":52,"max":[0.01896373278519241,0.09799999641703472,0.018966900556069193],"min":[-0.01896373469878891,0.09799999595354164,-0.018966901791706448],"type":"VEC3"},{"bufferView":0,"byteOffset":208764,"componentType":5126,"count":54,"max":[0.0169675502860355,0.10099999639264036,0.016970384643028368],"min":[-0.01696755223049646,0.09799999597793602,-0.016970385898595258],"type":"VEC3"},{"bufferView":0,"byteOffset":209412,"componentType":5126,"count":26,"max":[0.016967550255171045,0.10099999639264036,0.016970384623098727],"min":[-0.01696755223049646,0.100999995977936,-0.016970385898595258],"type":"VEC3"},{"bufferView":1,"byteOffset":0,"componentType":5126,"count":226,"type":"VEC3"},{"bufferView":1,"byteOffset":2712,"componentType":5126,"count":221,"type":"VEC3"},{"bufferView":1,"byteOffset":5364,"componentType":5126,"count":221,"type":"VEC3"},{"bufferView":1,"byteOffset":8016,"componentType":5126,"count":220,"type":"VEC3"},{"bufferView":1,"byteOffset":10656,"componentType":5126,"count":2508,"type":"VEC3"},{"bufferView":1,"byteOffset":40752,"componentType":5126,"count":11288,"type":"VEC3"},{"bufferView":1,"byteOffset":176208,"componentType":5126,"count":420,"type":"VEC3"},{"bufferView":1,"byteOffset":181248,"componentType":5126,"count":522,"type":"VEC3"},{"bufferView":1,"byteOffset":187512,"componentType":5126,"count":1265,"type":"VEC3"},{"bufferView":1,"byteOffset":202692,"componentType":5126,"count":87,"type":"VEC3"},{"bufferView":1,"byteOffset":203736,"componentType":5126,"count":8,"type":"VEC3"},{"bufferView":1,"byteOffset":203832,"componentType":5126,"count":16,"type":"VEC3"},{"bufferView":1,"byteOffset":204024,"componentType":5126,"count":30,"type":"VEC3"},{"bufferView":1,"byteOffset":204384,"componentType":5126,"count":4,"type":"VEC3"},{"bufferView":1,"byteOffset":204432,"componentType":5126,"count":16,"type":"VEC3"},{"bufferView":1,"byteOffset":204624,"componentType":5126,"count":8,"type":"VEC3"},{"bufferView":1,"byteOffset":204720,"componentType":5126,"count":16,"type":"VEC3"},{"bufferView":1,"byteOffset":204912,"componentType":5126,"count":28,"type":"VEC3"},{"bufferView":1,"byteOffset":205248,"componentType":5126,"count":4,"type":"VEC3"},{"bufferView":1,"byteOffset":205296,"componentType":5126,"count":16,"type":"VEC3"},{"bufferView":1,"byteOffset":205488,"componentType":5126,"count":54,"type":"VEC3"},{"bufferView":1,"byteOffset":206136,"componentType":5126,"count":32,"type":"VEC3"},{"bufferView":1,"byteOffset":206520,"componentType":5126,"count":15,"type":"VEC3"},{"bufferView":1,"byteOffset":206700,"componentType":5126,"count":14,"type":"VEC3"},{"bufferView":1,"byteOffset":206868,"componentType":5126,"count":26,"type":"VEC3"},{"bufferView":1,"byteOffset":207180,"componentType":5126,"count":54,"type":"VEC3"},{"bufferView":1,"byteOffset":207828,"componentType":5126,"count":26,"type":"VEC3"},{"bufferView":1,"byteOffset":208140,"componentType":5126,"count":52,"type":"VEC3"},{"bufferView":1,"byteOffset":208764,"componentType":5126,"count":54,"type":"VEC3"},{"bufferView":1,"byteOffset":209412,"componentType":5126,"count":26,"type":"VEC3"},{"bufferView":2,"byteOffset":0,"componentType":5123,"count":672,"type":"SCALAR"},{"bufferView":2,"byteOffset":1344,"componentType":5123,"count":663,"type":"SCALAR"},{"bufferView":2,"byteOffset":2672,"componentType":5123,"count":663,"type":"SCALAR"},{"bufferView":2,"byteOffset":4000,"componentType":5123,"count":654,"type":"SCALAR"},{"bufferView":2,"byteOffset":5308,"componentType":5123,"count":13818,"type":"SCALAR"},{"bufferView":2,"byteOffset":32944,"componentType":5123,"count":67023,"type":"SCALAR"},{"bufferView":2,"byteOffset":166992,"componentType":5123,"count":1260,"type":"SCALAR"},{"bufferView":2,"byteOffset":169512,"componentType":5123,"count":2010,"type":"SCALAR"},{"bufferView":2,"byteOffset":173532,"componentType":5123,"count":7059,"type":"SCALAR"},{"bufferView":2,"byteOffset":187652,"componentType":5123,"count":261,"type":"SCALAR"},{"bufferView":2,"byteOffset":188176,"componentType":5123,"count":18,"type":"SCALAR"},{"bufferView":2,"byteOffset":188212,"componentType":5123,"count":42,"type":"SCALAR"},{"bufferView":2,"byteOffset":188296,"componentType":5123,"count":84,"type":"SCALAR"},{"bufferView":2,"byteOffset":188464,"componentType":5123,"count":6,"type":"SCALAR"},{"bufferView":2,"byteOffset":188476,"componentType":5123,"count":42,"type":"SCALAR"},{"bufferView":2,"byteOffset":188560,"componentType":5123,"count":18,"type":"SCALAR"},{"bufferView":2,"byteOffset":188596,"componentType":5123,"count":42,"type":"SCALAR"},{"bufferView":2,"byteOffset":188680,"componentType":5123,"count":78,"type":"SCALAR"},{"bufferView":2,"byteOffset":188836,"componentType":5123,"count":6,"type":"SCALAR"},{"bufferView":2,"byteOffset":188848,"componentType":5123,"count":42,"type":"SCALAR"},{"bufferView":2,"byteOffset":188932,"componentType":5123,"count":156,"type":"SCALAR"},{"bufferView":2,"byteOffset":189244,"componentType":5123,"count":90,"type":"SCALAR"},{"bufferView":2,"byteOffset":189424,"componentType":5123,"count":39,"type":"SCALAR"},{"bufferView":2,"byteOffset":189504,"componentType":5123,"count":36,"type":"SCALAR"},{"bufferView":2,"byteOffset":189576,"componentType":5123,"count":72,"type":"SCALAR"},{"bufferView":2,"byteOffset":189720,"componentType":5123,"count":156,"type":"SCALAR"},{"bufferView":2,"byteOffset":190032,"componentType":5123,"count":72,"type":"SCALAR"},{"bufferView":2,"byteOffset":190176,"componentType":5123,"count":156,"type":"SCALAR"},{"bufferView":2,"byteOffset":190488,"componentType":5123,"count":156,"type":"SCALAR"},{"bufferView":2,"byteOffset":190800,"componentType":5123,"count":72,"type":"SCALAR"}],"asset":{"generator":"Open CASCADE Technology 7.8 [dev.opencascade.org]","version":"2.0"},"bufferViews":[{"buffer":0,"byteLength":209724,"byteOffset":0,"byteStride":12,"target":34962},{"buffer":0,"byteLength":209724,"byteOffset":209724,"byteStride":12,"target":34962},{"buffer":0,"byteLength":190944,"byteOffset":419448,"target":34963}],"buffers":[{"byteLength":610392,"uri":"Rocket.bin"}],"materials":[{"name":"mat_0","pbrMetallicRoughness":{"baseColorFactor":[1.0,1.0,1.0,0.5],"metallicFactor":0.0},"doubleSided":true,"alphaMode":"BLEND"},{"name":"mat_1","pbrMetallicRoughness":{"baseColorFactor":[1.0,0.1119324341416359,0.0009105809731408954,1.0]},"doubleSided":true},{"name":"mat_2","pbrMetallicRoughness":{"baseColorFactor":[1.0,0.0,0.0,1.0]},"doubleSided":true}],"meshes":[{"name":"rocket body_001","primitives":[{"attributes":{"NORMAL":30,"POSITION":0},"indices":60,"material":0,"mode":4},{"attributes":{"NORMAL":31,"POSITION":1},"indices":61,"material":0,"mode":4},{"attributes":{"NORMAL":32,"POSITION":2},"indices":62,"material":0,"mode":4},{"attributes":{"NORMAL":33,"POSITION":3},"indices":63,"material":0,"mode":4}]},{"name":"top cone_001","primitives":[{"attributes":{"NORMAL":34,"POSITION":4},"indices":64,"material":1,"mode":4},{"attributes":{"NORMAL":35,"POSITION":5},"indices":65,"material":1,"mode":4},{"attributes":{"NORMAL":36,"POSITION":6},"indices":66,"material":1,"mode":4},{"attributes":{"NORMAL":37,"POSITION":7},"indices":67,"material":1,"mode":4},{"attributes":{"NORMAL":38,"POSITION":8},"indices":68,"material":1,"mode":4}]},{"name":"AvionicsBay_001","primitives":[{"attributes":{"NORMAL":39,"POSITION":9},"indices":69,"material":2,"mode":4},{"attributes":{"NORMAL":40,"POSITION":10},"indices":70,"material":2,"mode":4},{"attributes":{"NORMAL":41,"POSITION":11},"indices":71,"material":2,"mode":4},{"attributes":{"NORMAL":42,"POSITION":12},"indices":72,"material":2,"mode":4},{"attributes":{"NORMAL":43,"POSITION":13},"indices":73,"material":2,"mode":4},{"attributes":{"NORMAL":44,"POSITION":14},"indices":74,"material":2,"mode":4},{"attributes":{"NORMAL":45,"POSITION":15},"indices":75,"material":2,"mode":4},{"attributes":{"NORMAL":46,"POSITION":16},"indices":76,"material":2,"mode":4},{"attributes":{"NORMAL":47,"POSITION":17},"indices":77,"material":2,"mode":4},{"attributes":{"NORMAL":48,"POSITION":18},"indices":78,"material":2,"mode":4},{"attributes":{"NORMAL":49,"POSITION":19},"indices":79,"material":2,"mode":4},{"attributes":{"NORMAL":50,"POSITION":20},"indices":80,"material":2,"mode":4},{"attributes":{"NORMAL":51,"POSITION":21},"indices":81,"material":2,"mode":4},{"attributes":{"NORMAL":52,"POSITION":22},"indices":82,"material":2,"mode":4},{"attributes":{"NORMAL":53,"POSITION":23},"indices":83,"material":2,"mode":4},{"attributes":{"NORMAL":54,"POSITION":24},"indices":84,"material":2,"mode":4},{"attributes":{"NORMAL":55,"POSITION":25},"indices":85,"material":2,"mode":4},{"attributes":{"NORMAL":56,"POSITION":26},"indices":86,"material":2,"mode":4},{"attributes":{"NORMAL":57,"POSITION":27},"indices":87,"material":2,"mode":4},{"attributes":{"NORMAL":58,"POSITION":28},"indices":88,"material":2,"mode":4},{"attributes":{"NORMAL":59,"POSITION":29},"indices":89,"material":2,"mode":4}]}],"nodes":[{"children":[1,2,3],"name":"rocket_full"},{"mesh":0,"name":"rocket body_001"},{"rotation":[0.0026617076455773443,-0.7071017715153285,0.7071017715154703,0.0026617197405883965],"translation":[2.5e-19,0.4000000000149012,0.0],"mesh":1,"name":"top cone_001"},{"translation":[-3.4460536555223365e-11,0.16566738823286845,2.329730503345585e-9],"mesh":2,"name":"AvionicsBay_001"}],"scene":0,"scenes":[{"nodes":[0]}]}