{"accessors":[{"bufferView":0,"byteOffset":0,"componentType":5126,"count":78,"max":[0.019,0.005,0.018935105367126734],"min":[-0.019,0.0,-0.01893510536712673],"type":"VEC3"},{"bufferView":0,"byteOffset":936,"componentType":5126,"count":38,"max":[0.019,0.0,0.018935105367126734],"min":[-0.019,0.0,-0.01893510536712673],"type":"VEC3"},{"bufferView":0,"byteOffset":1392,"componentType":5126,"count":74,"max":[0.019,0.005,0.018935105367126734],"min":[-0.019,0.005,-0.01893510536712673],"type":"VEC3"},{"bufferView":0,"byteOffset":2280,"componentType":5126,"count":74,"max":[0.017,0.005,0.017],"min":[-0.017,0.002,-0.017],"type":"VEC3"},{"bufferView":0,"byteOffset":3168,"componentType":5126,"count":36,"max":[0.017,0.002,0.017],"min":[-0.017,0.002,-0.017],"type":"VEC3"},{"bufferView":0,"byteOffset":3600,"componentType":5126,"count":87,"max":[0.019,0.005,0.01886146860786303],"min":[-0.019,0.005,-0.018861468607863024],"type":"VEC3"},{"bufferView":0,"byteOffset":4644,"componentType":5126,"count":8,"max":[0.0010000000000002102,0.10200000000000001,0.018000000000000003],"min":[0.000999999999999998,0.002,-0.018000000000000003],"type":"VEC3"},{"bufferView":0,"byteOffset":4740,"componentType":5126,"count":16,"max":[0.001,0.10200000000000001,-0.018000000000000003],"min":[0.0005,0.005,-0.0185],"type":"VEC3"},{"bufferView":0,"byteOffset":4932,"componentType":5126,"count":30,"max":[0.017,0.005,0.01697056274847714],"min":[0.000999999999999998,0.002,-0.01697056274847714],"type":"VEC3"},{"bufferView":0,"byteOffset":5292,"componentType":5126,"count":4,"max":[0.0005,0.10200000000000001,-0.0185],"min":[-0.0005,0.005,-0.0185],"type":"VEC3"},{"bufferView":0,"byteOffset":5340,"componentType":5126,"count":16,"max":[-0.0005,0.10200000000000001,-0.018000000000000003],"min":[-0.001,0.005,-0.0185],"type":"VEC3"},{"bufferView":0,"byteOffset":5532,"componentType":5126,"count":8,"max":[-0.000999999999999943,0.10200000000000001,0.018000000000000003],"min":[-0.001000000000000004,0.002,-0.018000000000000003],"type":"VEC3"},{"bufferView":0,"byteOffset":5628,"componentType":5126,"count":16,"max":[0.001,0.10200000000000001,0.0185],"min":[0.0005,0.005,0.018000000000000003],"type":"VEC3"},{"bufferView":0,"byteOffset":5820,"componentType":5126,"count":28,"max":[-0.000999999999999943,0.005,0.01697056274847715],"min":[-0.016885155271299788,0.002,-0.016970562748477148],"type":"VEC3"},{"bufferView":0,"byteOffset":6156,"componentType":5126,"count":4,"max":[0.0005,0.10200000000000001,0.0185],"min":[-0.0005,0.005,0.0185],"type":"VEC3"},{"bufferView":0,"byteOffset":6204,"componentType":5126,"count":16,"max":[-0.0005,0.10200000000000001,0.0185],"min":[-0.001,0.005,0.018000000000000003],"type":"VEC3"},{"bufferView":0,"byteOffset":6396,"componentType":5126,"count":54,"max":[0.019,0.005,0.01886146860786303],"min":[-0.019,0.0,-0.018861468607863024],"type":"VEC3"},{"bufferView":0,"byteOffset":7044,"componentType":5126,"count":32,"max":[0.001,0.10200000000000001,0.0185],"min":[-0.001,0.10200000000000001,-0.0185],"type":"VEC3"},{"bufferView":0,"byteOffset":7428,"componentType":5126,"count":15,"max":[0.017,0.002,0.016970562748477116],"min":[0.0010000000000002102,0.002,-0.016970562748477116],"type":"VEC3"},{"bufferView":0,"byteOffset":7608,"componentType":5126,"count":14,"max":[-0.000999999999999943,0.002,0.01697056274847715],"min":[-0.016885155271299788,0.002,-0.016970562748477148],"type":"VEC3"},{"bufferView":0,"byteOffset":7776,"componentType":5126,"count":26,"max":[0.019,0.0,0.01886146860786303],"min":[-0.019,0.0,-0.018861468607863024],"type":"VEC3"},{"bufferView":1,"byteOffset":0,"componentType":5126,"count":78,"type":"VEC3"},{"bufferView":1,"byteOffset":936,"componentType":5126,"count":38,"type":"VEC3"},{"bufferView":1,"byteOffset":1392,"componentType":5126,"count":74,"type":"VEC3"},{"bufferView":1,"byteOffset":2280,"componentType":5126,"count":74,"type":"VEC3"},{"bufferView":1,"byteOffset":3168,"componentType":5126,"count":36,"type":"VEC3"},{"bufferView":1,"byteOffset":3600,"componentType":5126,"count":87,"type":"VEC3"},{"bufferView":1,"byteOffset":4644,"componentType":5126,"count":8,"type":"VEC3"},{"bufferView":1,"byteOffset":4740,"componentType":5126,"count":16,"type":"VEC3"},{"bufferView":1,"byteOffset":4932,"componentType":5126,"count":30,"type":"VEC3"},{"bufferView":1,"byteOffset":5292,"componentType":5126,"count":4,"type":"VEC3"},{"bufferView":1,"byteOffset":5340,"componentType":5126,"count":16,"type":"VEC3"},{"bufferView":1,"byteOffset":5532,"componentType":5126,"count":8,"type":"VEC3"},{"bufferView":1,"byteOffset":5628,"componentType":5126,"count":16,"type":"VEC3"},{"bufferView":1,"byteOffset":5820,"componentType":5126,"count":28,"type":"VEC3"},{"bufferView":1,"byteOffset":6156,"componentType":5126,"count":4,"type":"VEC3"},{"bufferView":1,"byteOffset":6204,"componentType":5126,"count":16,"type":"VEC3"},{"bufferView":1,"byteOffset":6396,"componentType":5126,"count":54,"type":"VEC3"},{"bufferView":1,"byteOffset":7044,"componentType":5126,"count":32,"type":"VEC3"},{"bufferView":1,"byteOffset":7428,"componentType":5126,"count":15,"type":"VEC3"},{"bufferView":1,"byteOffset":7608,"componentType":5126,"count":14,"type":"VEC3"},{"bufferView":1,"byteOffset":7776,"componentType":5126,"count":26,"type":"VEC3"},{"bufferView":2,"byteOffset":0,"componentType":5123,"count":228,"type":"SCALAR"},{"bufferView":2,"byteOffset":456,"componentType":5123,"count":108,"type":"SCALAR"},{"bufferView":2,"byteOffset":672,"componentType":5123,"count":222,"type":"SCALAR"},{"bufferView":2,"byteOffset":1116,"componentType":5123,"count":216,"type":"SCALAR"},{"bufferView":2,"byteOffset":1548,"componentType":5123,"count":102,"type":"SCALAR"},{"bufferView":2,"byteOffset":1752,"componentType":5123,"count":261,"type":"SCALAR"},{"bufferView":2,"byteOffset":2276,"componentType":5123,"count":18,"type":"SCALAR"},{"bufferView":2,"byteOffset":2312,"componentType":5123,"count":42,"type":"SCALAR"},{"bufferView":2,"byteOffset":2396,"componentType":5123,"count":84,"type":"SCALAR"},{"bufferView":2,"byteOffset":2564,"componentType":5123,"count":6,"type":"SCALAR"},{"bufferView":2,"byteOffset":2576,"componentType":5123,"count":42,"type":"SCALAR"},{"bufferView":2,"byteOffset":2660,"componentType":5123,"count":18,"type":"SCALAR"},{"bufferView":2,"byteOffset":2696,"componentType":5123,"count":42,"type":"SCALAR"},{"bufferView":2,"byteOffset":2780,"componentType":5123,"count":78,"type":"SCALAR"},{"bufferView":2,"byteOffset":2936,"componentType":5123,"count":6,"type":"SCALAR"},{"bufferView":2,"byteOffset":2948,"componentType":5123,"count":42,"type":"SCALAR"},{"bufferView":2,"byteOffset":3032,"componentType":5123,"count":156,"type":"SCALAR"},{"bufferView":2,"byteOffset":3344,"componentType":5123,"count":90,"type":"SCALAR"},{"bufferView":2,"byteOffset":3524,"componentType":5123,"count":39,"type":"SCALAR"},{"bufferView":2,"byteOffset":3604,"componentType":5123,"count":36,"type":"SCALAR"},{"bufferView":2,"byteOffset":3676,"componentType":5123,"count":72,"type":"SCALAR"}],"asset":{"generator":"Open CASCADE Technology 7.8 [dev.opencascade.org]","version":"2.0"},"bufferViews":[{"buffer":0,"byteLength":8088,"byteOffset":0,"byteStride":12,"target":34962},{"buffer":0,"byteLength":8088,"byteOffset":8088,"byteStride":12,"target":34962},{"buffer":0,"byteLength":3820,"byteOffset":16176,"target":34963}],"buffers":[{"byteLength":19996,"uri":"AvionicsBay.bin"}],"materials":[{"name":"mat_0","pbrMetallicRoughness":{"baseColorFactor":[0.16826939582824708,0.19120168685913087,0.2158605307340622,1.0]},"doubleSided":true}],"meshes":[{"name":"Avionics_Bay_Bottom_001","primitives":[{"attributes":{"NORMAL":21,"POSITION":0},"indices":42,"material":0,"mode":4},{"attributes":{"NORMAL":22,"POSITION":1},"indices":43,"material":0,"mode":4},{"attributes":{"NORMAL":23,"POSITION":2},"indices":44,"material":0,"mode":4},{"attributes":{"NORMAL":24,"POSITION":3},"indices":45,"material":0,"mode":4},{"attributes":{"NORMAL":25,"POSITION":4},"indices":46,"material":0,"mode":4}]},{"name":"Avionics_Bay_Bottom_pylon_001","primitives":[{"attributes":{"NORMAL":26,"POSITION":5},"indices":47,"material":0,"mode":4},{"attributes":{"NORMAL":27,"POSITION":6},"indices":48,"material":0,"mode":4},{"attributes":{"NORMAL":28,"POSITION":7},"indices":49,"material":0,"mode":4},{"attributes":{"NORMAL":29,"POSITION":8},"indices":50,"material":0,"mode":4},{"attributes":{"NORMAL":30,"POSITION":9},"indices":51,"material":0,"mode":4},{"attributes":{"NORMAL":31,"POSITION":10},"indices":52,"material":0,"mode":4},{"attributes":{"NORMAL":32,"POSITION":11},"indices":53,"material":0,"mode":4},{"attributes":{"NORMAL":33,"POSITION":12},"indices":54,"material":0,"mode":4},{"attributes":{"NORMAL":34,"POSITION":13},"indices":55,"material":0,"mode":4},{"attributes":{"NORMAL":35,"POSITION":14},"indices":56,"material":0,"mode":4},{"attributes":{"NORMAL":36,"POSITION":15},"indices":57,"material":0,"mode":4},{"attributes":{"NORMAL":37,"POSITION":16},"indices":58,"material":0,"mode":4},{"attributes":{"NORMAL":38,"POSITION":17},"indices":59,"material":0,"mode":4},{"attributes":{"NORMAL":39,"POSITION":18},"indices":60,"material":0,"mode":4},{"attributes":{"NORMAL":40,"POSITION":19},"indices":61,"material":0,"mode":4},{"attributes":{"NORMAL":41,"POSITION":20},"indices":62,"material":0,"mode":4}]}],"nodes":[{"children":[1,2],"name":"Unnamed"},{"rotation":[-0.5423691978115879,6.25857949072363e-13,0.8401402580910016,-6.123282619497556e-9],"translation":[-1.0082390161107906e-9,0.10299999618528819,-6.510346940422494e-10],"mesh":0,"name":"Avionics_Bay_Bottom_001"},{"mesh":1,"name":"Avionics_Bay_Bottom_pylon_001"}],"scene":0,"scenes":[{"nodes":[0]}]}